<?xml version="1.0" encoding="UTF-8"?>
<svg width="200px" height="200px" viewBox="0 0 200 200" version="1.1" xmlns="http://www.w3.org/2000/svg" xmlns:xlink="http://www.w3.org/1999/xlink">
    <!-- Generator: Sketch 53.2 (72643) - https://sketchapp.com -->
    <title>ROJI</title>
    <g id="logos" stroke="none" stroke-width="1" fill="none" fill-rule="evenodd">
        <g id="coin-200">
            <g id="Group">
                <ellipse id="Oval" fill="#FF0095" cx="100" cy="98.5481039" rx="100" ry="98.5481039"></ellipse>
                <path d="M90.33125,117.056376 L90.33125,149.492781 C89.0937438,149.830662 87.1531382,150.168538 84.509375,150.506419 C81.8656118,150.844299 79.2500129,151.013237 76.6625,151.013237 C74.0749871,151.013237 71.7968848,150.816143 69.828125,150.421949 C67.8593652,150.027754 66.2281315,149.323846 64.934375,148.310204 C63.6406185,147.296561 62.6562534,145.888745 61.98125,144.086713 C61.3062466,142.284682 60.96875,139.919551 60.96875,136.99125 L60.96875,57.4206952 C60.96875,55.0555289 61.6156185,53.2253681 62.909375,51.930158 C64.2031315,50.6349479 65.9749888,49.5931641 68.225,48.8047753 C72.0500191,47.4532517 76.4937247,46.4677805 81.55625,45.8483322 C86.6187753,45.2288838 92.0187213,44.9191643 97.75625,44.9191643 C113.281328,44.9191643 124.981211,48.1852974 132.85625,54.7176615 C140.731289,61.2500256 144.66875,70.09111 144.66875,81.2411798 C144.66875,88.2240518 142.868768,94.1931915 139.26875,99.1487781 C135.668732,104.104365 131.393775,107.933624 126.44375,110.636671 C130.49377,116.155393 134.48748,121.336156 138.425,126.179115 C142.36252,131.022075 145.456239,135.414461 147.70625,139.356404 C146.581244,143.298348 144.52814,146.311075 141.546875,148.394673 C138.56561,150.478272 135.218769,151.520056 131.50625,151.520056 C129.031238,151.520056 126.893759,151.238493 125.09375,150.675358 C123.293741,150.112223 121.718757,149.323846 120.36875,148.310204 C119.018743,147.296561 117.781256,146.057683 116.65625,144.593532 C115.531244,143.129382 114.462505,141.552628 113.45,139.863223 L99.275,117.056376 L90.33125,117.056376 Z M100.9625,94.5874087 C105.237521,94.5874087 108.612488,93.4893122 111.0875,91.2930864 C113.562512,89.0968605 114.8,85.8588838 114.8,81.579059 C114.8,77.2992342 113.421889,74.0612575 110.665625,71.8650316 C107.909361,69.6688057 103.55003,68.5707093 97.5875,68.5707093 C95.8999916,68.5707093 94.5500051,68.6270219 93.5375,68.7396489 C92.5249949,68.8522758 91.4000062,69.0212138 90.1625,69.2464677 L90.1625,94.5874087 L100.9625,94.5874087 Z" id="R" fill-opacity="0.89880548" fill="#FFFFFF"></path>
            </g>
        </g>
    </g>
</svg>